<?xml version="1.0" encoding="UTF-8"?>
<!DOCTYPE svg PUBLIC "-//W3C//DTD SVG 1.1//EN" "http://www.w3.org/Graphics/SVG/1.1/DTD/svg11.dtd">
<svg xmlns="http://www.w3.org/2000/svg" version="1.1" width="64px" height="64px" style="shape-rendering:geometricPrecision; text-rendering:geometricPrecision; image-rendering:optimizeQuality; fill-rule:evenodd; clip-rule:evenodd" xmlns:xlink="http://www.w3.org/1999/xlink">
<g><path style="opacity:0.967" fill="#000000" d="M 11.5,3.5 C 12.8333,3.5 14.1667,3.5 15.5,3.5C 15.5,4.83333 15.5,6.16667 15.5,7.5C 26.1667,7.5 36.8333,7.5 47.5,7.5C 47.5,6.16667 47.5,4.83333 47.5,3.5C 48.8333,3.5 50.1667,3.5 51.5,3.5C 51.5,4.83333 51.5,6.16667 51.5,7.5C 54.3646,7.05484 56.8646,7.7215 59,9.5C 59.6667,25.5 59.6667,41.5 59,57.5C 58.5,58 58,58.5 57.5,59C 40.1667,59.6667 22.8333,59.6667 5.5,59C 5,58.5 4.5,58 4,57.5C 3.33333,41.5 3.33333,25.5 4,9.5C 6.13544,7.7215 8.63544,7.05484 11.5,7.5C 11.5,6.16667 11.5,4.83333 11.5,3.5 Z M 9.5,11.5 C 11.1765,12.1834 11.8432,13.5168 11.5,15.5C 12.8333,15.5 14.1667,15.5 15.5,15.5C 15.5,14.1667 15.5,12.8333 15.5,11.5C 26.1667,11.5 36.8333,11.5 47.5,11.5C 47.5,12.8333 47.5,14.1667 47.5,15.5C 48.8333,15.5 50.1667,15.5 51.5,15.5C 51.2808,11.4726 52.4475,10.8059 55,13.5C 55.4955,15.4727 55.6621,17.4727 55.5,19.5C 39.5,19.5 23.5,19.5 7.5,19.5C 7.1072,16.4867 7.77386,13.8201 9.5,11.5 Z M 7.5,23.5 C 23.5,23.5 39.5,23.5 55.5,23.5C 55.6665,33.5056 55.4998,43.5056 55,53.5C 54.5,54 54,54.5 53.5,55C 38.8333,55.6667 24.1667,55.6667 9.5,55C 9,54.5 8.5,54 8,53.5C 7.50019,43.5056 7.33352,33.5056 7.5,23.5 Z"/></g>
</svg>
